# xmcd
#
# Track frame offsets: 
#        150
#        15401
#        17473
#        37557
#        59951
#        74743
#        81304
#        99914
#        118273
#        135495
#        151451
#        169713
#        185649
#        188317
#        206090
#        229773
#        247831
#        266341
#        283114
#
# Disc length: 3966 seconds
#
# Revision: 0
# Processed by: cddbd v1.5.2PL0 Copyright (c) Steve Scherf et al.
# Submitted via: ExactAudioCopy v0.99pb5
#
DISCID=fd0f7c13
DTITLE=Lina - The Inner Beauty Movement
DYEAR=2005
DGENRE=R&B
TTITLE0=My Fix
TTITLE1=Walking (Interlude)
TTITLE2=Hope With and Pray
TTITLE3=Leaving You
TTITLE4=Fly
TTITLE5=Music (Interlude)
TTITLE6=I Am
TTITLE7=Run To Me
TTITLE8=Around The World (Feat. Anthony Hamilton)
TTITLE9=It Could Be
TTITLE10=Come To Mama
TTITLE11=This Time
TTITLE12=Never Forget (Interlude)
TTITLE13=Smooth
TTITLE14=Story Goes (Feat. Big Rube)
TTITLE15=Let It Go
TTITLE16=Peace and Love
TTITLE17=I'll Be Waiting
TTITLE18=On My Own (Bonus Track)
EXTD=
EXTT0=
EXTT1=
EXTT2=
EXTT3=
EXTT4=
EXTT5=
EXTT6=
EXTT7=
EXTT8=
EXTT9=
EXTT10=
EXTT11=
EXTT12=
EXTT13=
EXTT14=
EXTT15=
EXTT16=
EXTT17=
EXTT18=
PLAYORDER=
